<mxfile host="app.diagrams.net" modified="2024-02-09T03:43:29.151Z" agent="Mozilla/5.0 (Windows NT 10.0; Win64; x64) AppleWebKit/537.36 (KHTML, like Gecko) Chrome/121.0.0.0 Safari/537.36" etag="nqvruFgN5oTimYZF_isd" version="23.1.1" type="device">
  <diagram name="Page-1" id="CaZUZ9sOGoqor_98ok4v">
    <mxGraphModel dx="1434" dy="772" grid="1" gridSize="10" guides="1" tooltips="1" connect="1" arrows="1" fold="1" page="1" pageScale="1" pageWidth="850" pageHeight="1100" math="0" shadow="0">
      <root>
        <mxCell id="0" />
        <mxCell id="1" parent="0" />
        <mxCell id="hVb3O0jzc2e_ffYaujTJ-3" value="Usser" style="rounded=0;whiteSpace=wrap;html=1;" vertex="1" parent="1">
          <mxGeometry x="50" y="220" width="120" height="60" as="geometry" />
        </mxCell>
        <mxCell id="hVb3O0jzc2e_ffYaujTJ-4" value="" style="endArrow=none;html=1;rounded=0;entryX=0.028;entryY=0.622;entryDx=0;entryDy=0;entryPerimeter=0;exitX=1;exitY=0.25;exitDx=0;exitDy=0;" edge="1" parent="1" source="hVb3O0jzc2e_ffYaujTJ-6">
          <mxGeometry width="50" height="50" relative="1" as="geometry">
            <mxPoint x="280" y="220" as="sourcePoint" />
            <mxPoint x="473.3599999999999" y="197.32000000000005" as="targetPoint" />
            <Array as="points" />
          </mxGeometry>
        </mxCell>
        <mxCell id="hVb3O0jzc2e_ffYaujTJ-5" value="" style="endArrow=none;html=1;rounded=0;entryX=0;entryY=0.5;entryDx=0;entryDy=0;exitX=1;exitY=0.75;exitDx=0;exitDy=0;" edge="1" parent="1" source="hVb3O0jzc2e_ffYaujTJ-6">
          <mxGeometry width="50" height="50" relative="1" as="geometry">
            <mxPoint x="260" y="290" as="sourcePoint" />
            <mxPoint x="470" y="310" as="targetPoint" />
          </mxGeometry>
        </mxCell>
        <mxCell id="hVb3O0jzc2e_ffYaujTJ-6" value="Username" style="rounded=0;whiteSpace=wrap;html=1;" vertex="1" parent="1">
          <mxGeometry x="220" y="220" width="120" height="60" as="geometry" />
        </mxCell>
        <mxCell id="hVb3O0jzc2e_ffYaujTJ-7" value="" style="endArrow=none;html=1;rounded=0;exitX=1;exitY=0.5;exitDx=0;exitDy=0;entryX=0;entryY=0.5;entryDx=0;entryDy=0;" edge="1" parent="1" source="hVb3O0jzc2e_ffYaujTJ-3" target="hVb3O0jzc2e_ffYaujTJ-6">
          <mxGeometry width="50" height="50" relative="1" as="geometry">
            <mxPoint x="380" y="280" as="sourcePoint" />
            <mxPoint x="430" y="230" as="targetPoint" />
          </mxGeometry>
        </mxCell>
        <mxCell id="hVb3O0jzc2e_ffYaujTJ-8" value="Clock In" style="ellipse;whiteSpace=wrap;html=1;" vertex="1" parent="1">
          <mxGeometry x="470" y="160" width="120" height="80" as="geometry" />
        </mxCell>
        <mxCell id="hVb3O0jzc2e_ffYaujTJ-9" value="Clock Out" style="ellipse;whiteSpace=wrap;html=1;" vertex="1" parent="1">
          <mxGeometry x="460" y="270" width="120" height="80" as="geometry" />
        </mxCell>
        <mxCell id="hVb3O0jzc2e_ffYaujTJ-11" value="" style="endArrow=none;html=1;rounded=0;exitX=1.028;exitY=0.692;exitDx=0;exitDy=0;exitPerimeter=0;entryX=0;entryY=0.25;entryDx=0;entryDy=0;" edge="1" parent="1" source="hVb3O0jzc2e_ffYaujTJ-8" target="hVb3O0jzc2e_ffYaujTJ-14">
          <mxGeometry width="50" height="50" relative="1" as="geometry">
            <mxPoint x="570" y="280" as="sourcePoint" />
            <mxPoint x="668.04" y="246" as="targetPoint" />
          </mxGeometry>
        </mxCell>
        <mxCell id="hVb3O0jzc2e_ffYaujTJ-12" value="" style="endArrow=none;html=1;rounded=0;entryX=0;entryY=0.633;entryDx=0;entryDy=0;entryPerimeter=0;exitX=1.011;exitY=0.383;exitDx=0;exitDy=0;exitPerimeter=0;" edge="1" parent="1" source="hVb3O0jzc2e_ffYaujTJ-9" target="hVb3O0jzc2e_ffYaujTJ-14">
          <mxGeometry width="50" height="50" relative="1" as="geometry">
            <mxPoint x="570" y="280" as="sourcePoint" />
            <mxPoint x="673.3199999999999" y="280" as="targetPoint" />
          </mxGeometry>
        </mxCell>
        <mxCell id="hVb3O0jzc2e_ffYaujTJ-14" value="Hours" style="rounded=0;whiteSpace=wrap;html=1;" vertex="1" parent="1">
          <mxGeometry x="700" y="240" width="120" height="60" as="geometry" />
        </mxCell>
        <mxCell id="hVb3O0jzc2e_ffYaujTJ-15" value="Wages" style="rounded=0;whiteSpace=wrap;html=1;" vertex="1" parent="1">
          <mxGeometry x="880" y="240" width="120" height="60" as="geometry" />
        </mxCell>
        <mxCell id="hVb3O0jzc2e_ffYaujTJ-16" value="" style="endArrow=none;html=1;rounded=0;entryX=0.011;entryY=0.389;entryDx=0;entryDy=0;entryPerimeter=0;" edge="1" parent="1" source="hVb3O0jzc2e_ffYaujTJ-14" target="hVb3O0jzc2e_ffYaujTJ-15">
          <mxGeometry width="50" height="50" relative="1" as="geometry">
            <mxPoint x="750" y="280" as="sourcePoint" />
            <mxPoint x="800" y="230" as="targetPoint" />
          </mxGeometry>
        </mxCell>
        <mxCell id="hVb3O0jzc2e_ffYaujTJ-17" value="Earnings" style="rounded=0;whiteSpace=wrap;html=1;" vertex="1" parent="1">
          <mxGeometry x="1070" y="240" width="120" height="60" as="geometry" />
        </mxCell>
        <mxCell id="hVb3O0jzc2e_ffYaujTJ-18" value="" style="endArrow=none;html=1;rounded=0;exitX=1;exitY=0.5;exitDx=0;exitDy=0;" edge="1" parent="1" source="hVb3O0jzc2e_ffYaujTJ-15" target="hVb3O0jzc2e_ffYaujTJ-17">
          <mxGeometry width="50" height="50" relative="1" as="geometry">
            <mxPoint x="760" y="280" as="sourcePoint" />
            <mxPoint x="810" y="230" as="targetPoint" />
          </mxGeometry>
        </mxCell>
      </root>
    </mxGraphModel>
  </diagram>
</mxfile>
